# Blender v2.83.1 OBJ File: 'xyz.blend'
# www.blender.org
# mtllib xyz.mtl

g main
v 0.250000 0.250000 0.250000
v 0.250000 -0.250000 0.250000
v 0.250000 -0.250000 2.250000
v 0.250000 0.250000 2.250000
v -0.250000 0.250000 0.250000
v -0.250000 0.250000 -0.250000
v -0.250000 2.250000 -0.250000
v -0.250000 2.250000 0.250000
v -0.250000 -0.250000 0.250000
v -0.250000 -0.250000 -0.250000
v 0.250000 -0.250000 -0.250000
v 0.250000 0.250000 -0.250000
v 2.250000 0.250000 0.250000
v 2.250000 -0.250000 0.250000
v 2.250000 0.500000 0.500000
v 2.250000 -0.500000 0.500000
v 2.250000 0.250000 -0.250000
v 2.250000 -0.250000 -0.250000
v 0.250000 2.250000 -0.250000
v 0.500000 2.250000 -0.500000
v -0.500000 2.250000 -0.500000
v 0.250000 2.250000 0.250000
v 0.500000 -0.500000 2.250000
v 0.500000 0.500000 2.250000
v -0.250000 -0.250000 2.250000
v -0.250000 0.250000 2.250000
v 3.000000 0.000000 0.000000
v 2.250000 -0.500000 -0.500000
v 2.250000 0.500000 -0.500000
v 0.000000 3.000000 0.000000
v 0.500000 2.250000 0.500000
v -0.500000 2.250000 0.500000
v 0.000000 0.000000 3.000000
v -0.500000 0.500000 2.250000
v -0.500000 -0.500000 2.250000
vn 1.0000 0.0000 0.0000
vn -1.0000 0.0000 0.0000
vn 0.0000 0.0000 -1.0000
vn 0.0000 0.0000 1.0000
vn 0.0000 -1.0000 0.0000
vn 0.0000 1.0000 0.0000
vn 0.5547 0.0000 0.8321
vn 0.0000 0.5547 -0.8321
vn 0.5547 -0.8321 0.0000
vn 0.5547 0.0000 -0.8321
vn 0.5547 0.8321 0.0000
vn 0.8321 0.0000 0.5547
vn -0.8321 0.5547 0.0000
vn 0.8321 0.5547 0.0000
vn 0.0000 0.5547 0.8321
vn -0.8321 0.0000 0.5547
vn 0.0000 -0.8321 0.5547
vn 0.0000 0.8321 0.5547
# usemtl None // USE MTL FILE VS LIB FILE
s off
f 1//1 3//1 2//1
f 1//1 4//1 3//1
f 5//2 7//2 6//2
f 5//2 8//2 7//2
f 6//2 9//2 5//2
f 6//2 10//2 9//2
f 10//3 12//3 11//3
f 10//3 6//3 12//3
f 2//4 13//4 1//4
f 2//4 14//4 13//4
f 10//5 2//5 9//5
f 10//5 11//5 2//5
f 14//2 15//2 13//2
f 14//2 16//2 15//2
f 1//6 17//6 12//6
f 1//6 13//6 17//6
f 11//5 14//5 2//5
f 11//5 18//5 14//5
f 12//3 18//3 11//3
f 12//3 17//3 18//3
f 7//5 20//5 19//5
f 7//5 21//5 20//5
f 6//3 19//3 12//3
f 6//3 7//3 19//3
f 1//4 8//4 5//4
f 1//4 22//4 8//4
f 12//1 22//1 1//1
f 12//1 19//1 22//1
f 4//3 23//3 3//3
f 4//3 24//3 23//3
f 2//5 25//5 9//5
f 2//5 3//5 25//5
f 5//6 4//6 1//6
f 5//6 26//6 4//6
f 9//2 26//2 5//2
f 9//2 25//2 26//2
f 16//7 27//7 15//7
f 18//2 16//2 14//2
f 18//2 28//2 16//2
f 17//2 28//2 18//2
f 17//2 29//2 28//2
f 13//2 29//2 17//2
f 13//2 15//2 29//2
f 21//8 30//8 20//8
f 28//9 27//9 16//9
f 29//10 27//10 28//10
f 15//11 27//11 29//11
f 19//5 31//5 22//5
f 19//5 20//5 31//5
f 22//5 32//5 8//5
f 22//5 31//5 32//5
f 8//5 21//5 7//5
f 8//5 32//5 21//5
f 24//12 33//12 23//12
f 32//13 30//13 21//13
f 20//14 30//14 31//14
f 31//15 30//15 32//15
f 25//3 34//3 26//3
f 25//3 35//3 34//3
f 26//3 24//3 4//3
f 26//3 34//3 24//3
f 3//3 35//3 25//3
f 3//3 23//3 35//3
f 35//16 33//16 34//16
f 23//17 33//17 35//17
f 34//18 33//18 24//18
g X
v 3.937000 0.332000 -0.100000
v 3.819000 0.332000 -0.100000
v 3.606000 0.072000 -0.100000
v 3.392000 0.332000 -0.100000
v 3.273000 0.332000 -0.100000
v 3.546000 0.003000 -0.100000
v 3.252000 -0.350000 -0.100000
v 3.371000 -0.350000 -0.100000
v 3.606000 -0.068000 -0.100000
v 3.838000 -0.350000 -0.100000
v 3.956000 -0.350000 -0.100000
v 3.665000 0.003000 -0.100000
v 3.937000 0.332000 0.200000
v 3.819000 0.332000 0.200000
v 3.606000 0.072000 0.200000
v 3.392000 0.332000 0.200000
v 3.273000 0.332000 0.200000
v 3.546000 0.003000 0.200000
v 3.252000 -0.350000 0.200000
v 3.371000 -0.350000 0.200000
v 3.606000 -0.068000 0.200000
v 3.838000 -0.350000 0.200000
v 3.956000 -0.350000 0.200000
v 3.665000 0.003000 0.200000
vt 0.454545 0.000000
vt 0.363636 0.000000
vt 0.272727 0.000000
vt 0.181818 0.000000
vt 0.090909 0.000000
vt 0.000000 0.000000
vt 1.000000 0.000000
vt 0.545455 0.000000
vt 0.727273 0.000000
vt 0.909091 0.000000
vt 0.636364 0.000000
vt 0.818182 0.000000
vt 0.454545 0.000000
vt 0.272727 0.000000
vt 0.363636 0.000000
vt 0.181818 0.000000
vt 0.000000 0.000000
vt 0.090909 0.000000
vt 1.000000 0.000000
vt 0.545455 0.000000
vt 0.727273 0.000000
vt 0.909091 0.000000
vt 0.636364 0.000000
vt 0.818182 0.000000
vn 0.0000 0.0000 -1.0000
vn 0.0000 0.0000 1.0000
vn 0.0000 -1.0000 0.0000
vn -0.7696 -0.6386 0.0000
vn 0.0000 1.0000 0.0000
vn 0.7721 0.6355 0.0000
vn -0.7684 0.6400 0.0000
vn 0.7682 -0.6402 0.0000
vn -0.7736 0.6337 0.0000
vn -0.7722 -0.6353 0.0000
vn 0.7707 -0.6372 0.0000
vn 0.7716 0.6361 0.0000
# usemtl None
s off
f 41/1/19 40/2/19 39/3/19
f 41/1/19 39/3/19 38/4/19
f 38/4/19 37/5/19 36/6/19
f 38/4/19 36/6/19 47/7/19
f 41/1/19 38/4/19 47/7/19
f 42/8/19 41/1/19 47/7/19
f 42/8/19 47/7/19 44/9/19
f 44/9/19 47/7/19 46/10/19
f 42/8/19 44/9/19 43/11/19
f 45/12/19 44/9/19 46/10/19
f 53/13/20 51/14/20 52/15/20
f 53/13/20 50/16/20 51/14/20
f 50/16/20 48/17/20 49/18/20
f 50/16/20 59/19/20 48/17/20
f 53/13/20 59/19/20 50/16/20
f 54/20/20 59/19/20 53/13/20
f 54/20/20 56/21/20 59/19/20
f 56/21/20 58/22/20 59/19/20
f 54/20/20 55/23/20 56/21/20
f 57/24/20 58/22/20 56/21/20
f 45/12/21 46/10/21 58/22/21 57/24/21
f 40/2/22 41/1/22 53/13/22 52/15/22
f 42/8/21 43/11/21 55/23/21 54/20/21
f 36/6/23 37/5/23 49/18/23 48/17/23
f 38/4/24 39/3/24 51/14/24 50/16/24
f 41/1/25 42/8/25 54/20/25 53/13/25
f 43/11/26 44/9/26 56/21/26 55/23/26
f 37/5/27 38/4/27 50/16/27 49/18/27
f 44/9/28 45/12/28 57/24/28 56/21/28
f 39/3/23 40/2/23 52/15/23 51/14/23
f 47/7/29 36/6/29 48/17/29 59/19/29
f 46/10/30 47/7/30 59/19/30 58/22/30
g Y
v 0.001000 3.697000 -0.100000
v -0.182000 3.932000 -0.100000
v -0.300000 3.932000 -0.100000
v -0.047000 3.611000 -0.100000
v -0.047000 3.250000 -0.100000
v 0.051000 3.250000 -0.100000
v 0.051000 3.610000 -0.100000
v 0.304000 3.932000 -0.100000
v 0.186000 3.932000 -0.100000
v 0.001000 3.697000 0.100000
v -0.182000 3.932000 0.100000
v -0.300000 3.932000 0.100000
v -0.047000 3.611000 0.100000
v -0.047000 3.250000 0.100000
v 0.051000 3.250000 0.100000
v 0.051000 3.610000 0.100000
v 0.304000 3.932000 0.100000
v 0.186000 3.932000 0.100000
vt 0.375000 0.000000
vt 0.250000 0.000000
vt 0.125000 0.000000
vt 0.000000 0.000000
vt 1.000000 0.000000
vt 0.875000 0.000000
vt 0.750000 0.000000
vt 0.500000 0.000000
vt 0.625000 0.000000
vt 0.375000 0.000000
vt 0.125000 0.000000
vt 0.250000 0.000000
vt 0.000000 0.000000
vt 0.875000 0.000000
vt 1.000000 0.000000
vt 0.750000 0.000000
vt 0.500000 0.000000
vt 0.625000 0.000000
vn 0.0000 0.0000 -1.0000
vn 0.0000 0.0000 1.0000
vn 0.7863 -0.6178 0.0000
vn 0.0000 -1.0000 0.0000
vn -0.7854 -0.6190 0.0000
vn 0.0000 1.0000 0.0000
vn 1.0000 0.0000 0.0000
vn 0.7890 0.6144 0.0000
vn -1.0000 0.0000 0.0000
vn -0.7857 0.6186 0.0000
# usemtl None
s off
f 63/25/31 62/26/31 61/27/31
f 63/25/31 61/27/31 60/28/31
f 60/28/31 68/29/31 67/30/31
f 60/28/31 67/30/31 66/31/31
f 63/25/31 60/28/31 66/31/31
f 64/32/31 63/25/31 66/31/31
f 64/32/31 66/31/31 65/33/31
f 72/34/32 70/35/32 71/36/32
f 72/34/32 69/37/32 70/35/32
f 69/37/32 76/38/32 77/39/32
f 69/37/32 75/40/32 76/38/32
f 72/34/32 75/40/32 69/37/32
f 73/41/32 75/40/32 72/34/32
f 73/41/32 74/42/32 75/40/32
f 66/31/33 67/30/33 76/38/33 75/40/33
f 64/32/34 65/33/34 74/42/34 73/41/34
f 62/26/35 63/25/35 72/34/35 71/36/35
f 67/30/36 68/29/36 77/39/36 76/38/36
f 65/33/37 66/31/37 75/40/37 74/42/37
f 60/28/38 61/27/38 70/35/38 69/37/38
f 63/25/39 64/32/39 73/41/39 72/34/39
f 68/29/40 60/28/40 69/37/40 77/39/40
f 61/27/36 62/26/36 71/36/36 70/35/36
g Z
v 0.100000 0.100000 3.844000
v -0.334000 0.100000 3.250000
v 0.281000 0.100000 3.250000
v 0.281000 0.100000 3.338000
v -0.153000 0.100000 3.338000
v 0.281000 0.100000 3.932000
v -0.307000 0.100000 3.932000
v -0.307000 0.100000 3.844000
v 0.100000 -0.100000 3.844000
v -0.334000 -0.100000 3.250000
v 0.281000 -0.100000 3.250000
v 0.281000 -0.100000 3.338000
v -0.153000 -0.100000 3.338000
v 0.281000 -0.100000 3.932000
v -0.307000 -0.100000 3.932000
v -0.307000 -0.100000 3.844000
vt 1.000000 0.000000
vt 0.857143 0.000000
vt 0.714286 0.000000
vt 0.000000 0.000000
vt 0.571429 0.000000
vt 0.142857 0.000000
vt 0.428571 0.000000
vt 0.285714 0.000000
vt 1.000000 0.000000
vt 0.714286 0.000000
vt 0.857143 0.000000
vt 0.000000 0.000000
vt 0.571429 0.000000
vt 0.142857 0.000000
vt 0.428571 0.000000
vt 0.285714 0.000000
vn 0.0000 1.0000 0.0000
vn 0.0000 -1.0000 0.0000
vn -0.8074 0.0000 0.5899
vn 0.0000 0.0000 -1.0000
vn 1.0000 0.0000 0.0000
vn 0.0000 0.0000 1.0000
vn 0.8074 0.0000 -0.5899
vn -1.0000 0.0000 0.0000
# usemtl None
s off
f 85/43/41 84/44/41 83/45/41
f 85/43/41 83/45/41 78/46/41
f 78/46/41 83/45/41 82/47/41
f 79/48/41 78/46/41 82/47/41
f 79/48/41 82/47/41 81/49/41
f 79/48/41 81/49/41 80/50/41
f 93/51/42 91/52/42 92/53/42
f 93/51/42 86/54/42 91/52/42
f 86/54/42 90/55/42 91/52/42
f 87/56/42 90/55/42 86/54/42
f 87/56/42 89/57/42 90/55/42
f 87/56/42 88/58/42 89/57/42
f 78/46/43 79/48/43 87/56/43 86/54/43
f 85/43/44 78/46/44 86/54/44 93/51/44
f 80/50/45 81/49/45 89/57/45 88/58/45
f 81/49/46 82/47/46 90/55/46 89/57/46
f 82/47/47 83/45/47 91/52/47 90/55/47
f 83/45/46 84/44/46 92/53/46 91/52/46
f 79/48/44 80/50/44 88/58/44 87/56/44
f 84/44/48 85/43/48 93/51/48 92/53/48
